<?xml version="1.0" encoding="UTF-8" standalone="no"?>
<!-- Created with Inkscape (http://www.inkscape.org/) -->

<svg
   width="8cm"
   height="6cm"
   viewBox="0 0 80 60"
   version="1.1"
   id="svg1"
   inkscape:version="1.4.2 (ebf0e940d0, 2025-05-08)"
   sodipodi:docname="silhouette-mouse-standing.svg"
   xmlns:inkscape="http://www.inkscape.org/namespaces/inkscape"
   xmlns:sodipodi="http://sodipodi.sourceforge.net/DTD/sodipodi-0.dtd"
   xmlns="http://www.w3.org/2000/svg"
   xmlns:svg="http://www.w3.org/2000/svg">
  <sodipodi:namedview
     id="namedview1"
     pagecolor="#ffffff"
     bordercolor="#666666"
     borderopacity="1.0"
     inkscape:showpageshadow="2"
     inkscape:pageopacity="0.0"
     inkscape:pagecheckerboard="0"
     inkscape:deskcolor="#d1d1d1"
     inkscape:document-units="mm"
     inkscape:zoom="0.47749719"
     inkscape:cx="7.329886"
     inkscape:cy="6.2827594"
     inkscape:window-width="1366"
     inkscape:window-height="717"
     inkscape:window-x="0"
     inkscape:window-y="336"
     inkscape:window-maximized="1"
     inkscape:current-layer="layer1" />
  <defs
     id="defs1" />
  <g
     inkscape:label="Layer 1"
     inkscape:groupmode="layer"
     id="layer1"
     transform="translate(-102.92296,-146.84375)">
    <path
       id="path1-4"
       style="fill:#000000;fill-opacity:1;stroke-width:0.116779"
       class="st0"
       d="m 130.43109,151.84325 c -2.0782,0 -3.76329,1.66284 -3.82341,3.72556 -1.82797,0.13123 -5.56215,0.93372 -8.88596,1.87782 -0.45873,-1.38371 -1.03372,-2.88381 -1.74272,-4.57427 l -0.66873,0.27748 c 0.69998,1.6711 1.26748,3.14733 1.72009,4.49929 -0.68998,0.20375 -1.35759,0.41625 -1.97545,0.62374 -0.40125,-1.17122 -0.95748,-2.42745 -1.72009,-3.89842 l -0.645,0.33875 c 0.75123,1.45072 1.29798,2.66668 1.68997,3.79317 -1.72284,0.61248 -2.94781,1.19623 -3.08719,1.61509 -0.415,1.25298 0.77874,2.37857 3.95105,3.8608 10e-4,0.99747 -0.0375,2.09621 -0.13125,3.37256 l 0.72124,0.0375 c 0.075,-1.14373 0.1125,-2.15446 0.13124,-3.08719 0.025,0.0112 0.0375,0.0125 0.075,0.025 0.68125,0.30124 1.52448,0.68748 2.4562,1.12623 0.0112,0.98748 -0.0375,1.99334 -0.14499,3.06468 l 0.72124,0.075 c 0.0875,-0.96623 0.145,-1.89109 0.145,-2.7942 4.15404,1.97747 9.6943,4.77117 11.61264,5.8664 3.70054,2.11508 0.40123,7.0041 -3.0347,7.79683 -3.43543,0.79249 -5.02102,4.21792 -2.90694,6.33201 0.14875,0.14875 0.27125,0.21625 0.35999,0.21125 0.025,-0.004 0.075,-0.025 0.0875,-0.0375 0.2575,-0.2225 0.2475,-1.18123 0.4125,-1.39686 l 0.007,-0.007 0.008,-0.007 h 0.007 l 0.008,-0.0125 h 0.007 0.008 0.007 0.007 c 10e-4,0 0.0125,0 0.025,0 0.0875,0.025 0.205,0.16375 0.37623,0.4725 0.94749,1.71422 1.58497,0 1.58497,0 0,0 0.21125,-3.30793 2.64395,-3.43268 5.15377,-0.265 6.60674,-4.76491 9.38182,2.23845 1.53896,3.88531 0.79248,7.13849 3.16968,9.51682 5.28615,5.28614 0.26625,5.28802 -1.8477,5.28802 -2.11397,0 -5.19853,1.52309 -3.70319,2.64406 1.05624,0.79373 0.52999,0.52625 3.96605,0.52625 h 8.19484 c 0,0 1.32272,-2.11634 -0.26249,-3.96617 -1.5856,-1.84959 -0.19875,-3.85218 0.52623,-5.01754 0.67623,-1.08622 7.4886,-1.62396 11.71777,-5.45326 1.12123,1.72109 2.35459,3.22519 3.61293,4.13117 2.77032,1.99609 5.19702,3.54318 5.69363,4.8074 1.09123,2.78295 -4.50852,3.99443 -17.59165,4.17629 -1.18872,0 -1.64871,1.32273 -0.52623,1.32273 26.16536,1.3e-4 24.05377,-4.75329 17.97477,-9.24656 -2.8052,-2.07334 -5.15577,-5.07015 -6.90286,-8.13497 0.67498,-1.33722 1.08872,-2.91544 1.08872,-4.81466 0,-12.94962 -14.01485,-19.8211 -24.32952,-20.9342 -2.5062,-0.27 -4.82053,-0.69374 -6.82037,-1.14124 0.30375,-0.54873 0.48875,-1.16997 0.48875,-1.84034 0,-2.11582 -1.71472,-3.83829 -3.83081,-3.83829 z m -5.64113,6.41474 c 0.25375,-0.004 0.46624,0.0375 0.59248,0.1575 0.505,0.4575 0.59625,1.03248 0,1.33723 -0.59623,0.30499 -2.61907,0.38749 -2.53132,-0.39874 0.075,-0.58999 1.17748,-1.08249 1.93797,-1.09749 z" />
  </g>
</svg>
